<mxfile host="app.diagrams.net" modified="2021-01-13T13:00:08.813Z" agent="5.0 (Macintosh; Intel Mac OS X 10_15_7) AppleWebKit/537.36 (KHTML, like Gecko) Chrome/87.0.4280.141 Safari/537.36" etag="p749sSOSJRdd5nx9ATog" version="14.1.9" type="github">
  <diagram id="prtHgNgQTEPvFCAcTncT" name="Page-1">
    <mxGraphModel dx="1186" dy="700" grid="1" gridSize="10" guides="1" tooltips="1" connect="1" arrows="1" fold="1" page="1" pageScale="1" pageWidth="827" pageHeight="1169" math="0" shadow="0">
      <root>
        <mxCell id="0" />
        <mxCell id="1" parent="0" />
        <mxCell id="H9Jw-xXYYPRfMjgZ2NkX-4" value="" style="rounded=0;whiteSpace=wrap;html=1;fillColor=#f5f5f5;strokeColor=#666666;fontColor=#333333;" vertex="1" parent="1">
          <mxGeometry y="560" width="830" height="680" as="geometry" />
        </mxCell>
        <mxCell id="H9Jw-xXYYPRfMjgZ2NkX-12" value="" style="edgeStyle=orthogonalEdgeStyle;rounded=0;orthogonalLoop=1;jettySize=auto;html=1;" edge="1" parent="1" source="H9Jw-xXYYPRfMjgZ2NkX-5" target="H9Jw-xXYYPRfMjgZ2NkX-6">
          <mxGeometry relative="1" as="geometry" />
        </mxCell>
        <mxCell id="H9Jw-xXYYPRfMjgZ2NkX-5" value="Must-Gather" style="rounded=0;whiteSpace=wrap;html=1;fillColor=#f8cecc;strokeColor=#b85450;" vertex="1" parent="1">
          <mxGeometry x="354" y="585" width="120" height="60" as="geometry" />
        </mxCell>
        <mxCell id="H9Jw-xXYYPRfMjgZ2NkX-6" value="OCS" style="rounded=0;whiteSpace=wrap;html=1;fillColor=#fff2cc;strokeColor=#d6b656;" vertex="1" parent="1">
          <mxGeometry x="354" y="690" width="120" height="60" as="geometry" />
        </mxCell>
        <mxCell id="H9Jw-xXYYPRfMjgZ2NkX-7" value="Namespace" style="rounded=0;whiteSpace=wrap;html=1;fillColor=#dae8fc;strokeColor=#6c8ebf;" vertex="1" parent="1">
          <mxGeometry x="114" y="820" width="120" height="60" as="geometry" />
        </mxCell>
        <mxCell id="H9Jw-xXYYPRfMjgZ2NkX-8" value="Clustered Scope&lt;br&gt;Resources" style="rounded=0;whiteSpace=wrap;html=1;fillColor=#dae8fc;strokeColor=#6c8ebf;" vertex="1" parent="1">
          <mxGeometry x="594" y="820" width="120" height="60" as="geometry" />
        </mxCell>
        <mxCell id="H9Jw-xXYYPRfMjgZ2NkX-9" value="Ceph" style="rounded=0;whiteSpace=wrap;html=1;fillColor=#dae8fc;strokeColor=#6c8ebf;" vertex="1" parent="1">
          <mxGeometry x="234" y="990" width="120" height="60" as="geometry" />
        </mxCell>
        <mxCell id="H9Jw-xXYYPRfMjgZ2NkX-10" value="Noobaa" style="rounded=0;whiteSpace=wrap;html=1;fillColor=#dae8fc;strokeColor=#6c8ebf;" vertex="1" parent="1">
          <mxGeometry x="474" y="990" width="120" height="60" as="geometry" />
        </mxCell>
        <mxCell id="H9Jw-xXYYPRfMjgZ2NkX-13" value="" style="endArrow=classic;html=1;exitX=0.5;exitY=1;exitDx=0;exitDy=0;entryX=0.499;entryY=0.368;entryDx=0;entryDy=0;entryPerimeter=0;" edge="1" parent="1" source="H9Jw-xXYYPRfMjgZ2NkX-6" target="H9Jw-xXYYPRfMjgZ2NkX-4">
          <mxGeometry width="50" height="50" relative="1" as="geometry">
            <mxPoint x="390" y="890" as="sourcePoint" />
            <mxPoint x="440" y="840" as="targetPoint" />
          </mxGeometry>
        </mxCell>
        <mxCell id="H9Jw-xXYYPRfMjgZ2NkX-14" value="" style="endArrow=classic;html=1;entryX=0.5;entryY=0;entryDx=0;entryDy=0;" edge="1" parent="1" target="H9Jw-xXYYPRfMjgZ2NkX-7">
          <mxGeometry width="50" height="50" relative="1" as="geometry">
            <mxPoint x="400" y="800" as="sourcePoint" />
            <mxPoint x="440" y="840" as="targetPoint" />
          </mxGeometry>
        </mxCell>
        <mxCell id="H9Jw-xXYYPRfMjgZ2NkX-15" value="" style="endArrow=classic;html=1;entryX=0.5;entryY=0;entryDx=0;entryDy=0;" edge="1" parent="1" target="H9Jw-xXYYPRfMjgZ2NkX-9">
          <mxGeometry width="50" height="50" relative="1" as="geometry">
            <mxPoint x="410" y="810" as="sourcePoint" />
            <mxPoint x="440" y="840" as="targetPoint" />
          </mxGeometry>
        </mxCell>
        <mxCell id="H9Jw-xXYYPRfMjgZ2NkX-16" value="" style="endArrow=classic;html=1;entryX=0.567;entryY=-0.017;entryDx=0;entryDy=0;entryPerimeter=0;" edge="1" parent="1" target="H9Jw-xXYYPRfMjgZ2NkX-8">
          <mxGeometry width="50" height="50" relative="1" as="geometry">
            <mxPoint x="430" y="800" as="sourcePoint" />
            <mxPoint x="440" y="840" as="targetPoint" />
          </mxGeometry>
        </mxCell>
        <mxCell id="H9Jw-xXYYPRfMjgZ2NkX-17" value="" style="endArrow=classic;html=1;entryX=0.5;entryY=0;entryDx=0;entryDy=0;" edge="1" parent="1" target="H9Jw-xXYYPRfMjgZ2NkX-10">
          <mxGeometry width="50" height="50" relative="1" as="geometry">
            <mxPoint x="420" y="810" as="sourcePoint" />
            <mxPoint x="440" y="840" as="targetPoint" />
          </mxGeometry>
        </mxCell>
      </root>
    </mxGraphModel>
  </diagram>
</mxfile>
